<svg xmlns="http://www.w3.org/2000/svg" viewBox="0 0 90 90" fill="none">
  <!-- Three flowing waves rising upward, the top one is an arrow -->

  <!-- Dark navy bottom wave -->
  <path d="M18 82 C22 72, 28 62, 35 55 C42 48, 48 44, 52 38 C54 34, 55 31, 56 28 L60 34 C58 38, 56 42, 52 47 C46 54, 38 60, 32 68 C28 74, 24 78, 22 82 Z" fill="#0c2340"/>

  <!-- Amber/gold middle wave -->
  <path d="M26 80 C30 68, 36 56, 44 46 C50 38, 54 32, 58 24 C59 22, 60 20, 61 18 L66 26 C64 30, 62 34, 58 40 C52 48, 44 56, 38 66 C34 72, 30 76, 28 80 Z" fill="#e8a838"/>

  <!-- Teal arrow (top wave with arrowhead) -->
  <path d="M34 78 C38 64, 44 50, 52 40 C58 32, 62 26, 66 18 C68 14, 69 11, 70 8 L72 6 L78 14 L74 16 C72 20, 70 24, 66 30 C60 40, 52 50, 46 60 C40 68, 36 74, 34 78 Z" fill="#1a9b8a"/>
  <!-- Arrowhead -->
  <polygon points="64,4 80,16 72,6" fill="#1a9b8a"/>
</svg>
