<svg xmlns="http://www.w3.org/2000/svg" viewBox="0 0 400 120" fill="none">
  <!-- Teal arrow going up -->
  <path d="M30 90 Q35 60 50 45 Q60 35 65 25 L72 10 L78 18 L70 30 Q65 40 58 50 Q48 65 45 85 Z" fill="#1a9b8a"/>
  <polygon points="65,8 80,22 72,15" fill="#1a9b8a"/>
  <!-- Amber/gold middle wave -->
  <path d="M25 95 Q40 55 55 45 Q65 38 70 32 L75 40 Q68 48 58 55 Q42 68 35 95 Z" fill="#e8a838"/>
  <!-- Dark navy bottom wave -->
  <path d="M20 105 Q30 75 45 60 Q55 50 62 42 L68 50 Q60 58 50 68 Q35 82 28 105 Z" fill="#0c2340"/>
  <!-- Company name text -->
  <text x="100" y="42" font-family="'Inter', Arial, sans-serif" font-size="26" font-weight="700" fill="#0c2340" letter-spacing="1">ENERGETIC</text>
  <text x="100" y="72" font-family="'Inter', Arial, sans-serif" font-size="26" font-weight="700" fill="#0c2340" letter-spacing="1">MANAGEMENT</text>
  <text x="100" y="102" font-family="'Inter', Arial, sans-serif" font-size="26" font-weight="700" fill="#0c2340" letter-spacing="1">CONSULTING</text>
</svg>
