<svg xmlns="http://www.w3.org/2000/svg" viewBox="0 0 420 110" fill="none">
  <!-- Icon: Three flowing waves rising upward, the top one is an arrow -->

  <!-- Dark navy bottom wave -->
  <path d="M15 95 C20 82, 26 68, 34 58 C42 48, 48 40, 52 32 C54 28, 55 25, 56 22 L60 28 C58 32, 56 36, 52 42 C46 50, 38 58, 32 68 C26 78, 22 86, 20 95 Z" fill="#0c2340"/>

  <!-- Amber/gold middle wave -->
  <path d="M24 92 C28 76, 36 60, 44 48 C50 38, 54 30, 58 22 C59 19, 60 17, 61 14 L66 22 C64 26, 62 30, 58 36 C52 46, 44 56, 38 66 C32 76, 28 84, 26 92 Z" fill="#e8a838"/>

  <!-- Teal arrow (top wave with arrowhead) -->
  <path d="M32 88 C36 72, 44 54, 52 42 C58 32, 62 24, 66 16 C68 12, 69 9, 70 6 L72 4 L78 12 L74 14 C72 18, 70 22, 66 28 C60 38, 52 48, 46 58 C40 68, 36 78, 34 88 Z" fill="#1a9b8a"/>
  <!-- Arrowhead -->
  <polygon points="64,2 80,14 72,4" fill="#1a9b8a"/>

  <!-- Company name text - stacked -->
  <text x="100" y="38" font-family="'Inter', 'Segoe UI', Arial, sans-serif" font-size="28" font-weight="800" fill="#0c2340" letter-spacing="2">ENERGETIC</text>
  <text x="100" y="66" font-family="'Inter', 'Segoe UI', Arial, sans-serif" font-size="28" font-weight="800" fill="#0c2340" letter-spacing="2">MANAGEMENT</text>
  <text x="100" y="94" font-family="'Inter', 'Segoe UI', Arial, sans-serif" font-size="28" font-weight="800" fill="#0c2340" letter-spacing="2">CONSULTING</text>
</svg>
